<svg width="91" height="39" viewBox="0 0 91 39" fill="none" xmlns="http://www.w3.org/2000/svg">
<g clip-path="url(#clip0_36_176)">
<path d="M30.5901 19.0349L22.9173 28.4925H30.5901V31.9639H18.0566V28.7225L25.7601 19.2649H18.3541V15.7935H30.5901V19.0349Z" fill="#1F1646"/>
<path d="M49.3734 15.7935V31.9639H45.7701V30.3448C44.3165 31.7002 42.4949 32.4607 40.5108 32.4607C35.9813 32.5589 31.9456 28.5262 32.0468 23.8618C31.9487 19.2649 35.9813 15.1985 40.5108 15.2967C42.4949 15.2967 44.3134 16.0572 45.7701 17.4127V15.7935H49.3734ZM40.842 18.8693C38.131 18.8693 35.9138 21.0834 35.9138 23.8618C35.9138 26.6402 38.128 28.8544 40.842 28.8544C43.5559 28.8544 45.7701 26.6402 45.7701 23.8618C45.7701 21.0834 43.5559 18.8693 40.842 18.8693Z" fill="#1F1646"/>
<path d="M58.3037 15.7935H61.6096V19.2649H58.3037V31.964H54.4673V19.2649H51.7227V15.7935H54.4673V14.0087C54.4673 10.1079 57.212 7.09644 61.6096 7.09644V10.7335C59.6254 10.7335 58.3037 12.089 58.3037 14.0731V15.7935Z" fill="#1F1646"/>
<path d="M65.7583 6.77759C66.9758 6.77759 67.9786 7.72212 67.9786 8.93651C67.9786 10.1509 66.9758 11.0954 65.7583 11.0954C64.5409 11.0954 63.5381 10.1509 63.5381 8.93651C63.5381 7.72212 64.5409 6.77759 65.7583 6.77759Z" fill="#0071CE"/>
<path d="M67.6934 15.7935H63.8232V31.9639H67.6934V15.7935Z" fill="#1F1646"/>
<path d="M86.0779 31.9641H82.2078V22.6721C82.2078 20.3906 80.7542 18.9676 78.6352 18.9676C76.5161 18.9676 75.0625 20.455 75.0625 22.6721V31.9641H71.1924V15.7936H74.7957V17.3822C75.9518 16.0604 77.6385 15.3306 79.6564 15.3306C83.3271 15.3306 86.0718 18.0415 86.0718 21.8104V31.9611L86.0779 31.9641Z" fill="#1F1646"/>
<path d="M6.19213 25.771L-0.000976562 31.9641L6.19213 38.1572L12.3852 31.9641L6.19213 25.771Z" fill="url(#paint0_linear_36_176)"/>
<path d="M0 31.964V19.5778L6.19158 13.3862L12.3862 19.5778L0 31.964Z" fill="url(#paint1_linear_36_176)"/>
<path d="M12.3862 19.5778V7.19158L6.19158 1L0 7.19158L12.3862 19.5778Z" fill="url(#paint2_linear_36_176)"/>
<path d="M88.7948 15.6709V16.0972H88.341V17.3852H87.8043V16.0972H87.3535V15.6709H88.7948Z" fill="#1F1646"/>
<path d="M91.0001 15.6709V17.3852H90.4665V16.5296L90.2028 17.3852H89.7428L89.479 16.5296V17.3852H88.9424V15.6709H89.6017L89.9789 16.7013L90.3469 15.6709H91.0032H91.0001Z" fill="#1F1646"/>
</g>
<defs>
<linearGradient id="paint0_linear_36_176" x1="9.28793" y1="35.0599" x2="3.09635" y2="28.8653" gradientUnits="userSpaceOnUse">
<stop stop-color="#009CFF"/>
<stop offset="0.12" stop-color="#0095F7"/>
<stop offset="0.29" stop-color="#0082E4"/>
<stop offset="0.5" stop-color="#0063C3"/>
<stop offset="0.74" stop-color="#003896"/>
<stop offset="1" stop-color="#00015D"/>
</linearGradient>
<linearGradient id="paint1_linear_36_176" x1="6.19158" y1="31.964" x2="6.19158" y2="13.3862" gradientUnits="userSpaceOnUse">
<stop stop-color="#009CFF"/>
<stop offset="0.12" stop-color="#0095F7"/>
<stop offset="0.29" stop-color="#0082E4"/>
<stop offset="0.5" stop-color="#0063C3"/>
<stop offset="0.74" stop-color="#003896"/>
<stop offset="1" stop-color="#00015D"/>
</linearGradient>
<linearGradient id="paint2_linear_36_176" x1="6.19158" y1="19.5778" x2="6.19158" y2="1" gradientUnits="userSpaceOnUse">
<stop stop-color="#009CFF"/>
<stop offset="0.12" stop-color="#0095F7"/>
<stop offset="0.29" stop-color="#0082E4"/>
<stop offset="0.5" stop-color="#0063C3"/>
<stop offset="0.74" stop-color="#003896"/>
<stop offset="1" stop-color="#00015D"/>
</linearGradient>
<clipPath id="clip0_36_176">
<rect width="91" height="39" fill="white"/>
</clipPath>
</defs>
</svg>
